<svg width="24" height="24" viewBox="0 0 24 24" fill="none" xmlns="http://www.w3.org/2000/svg">
<g clip-path="url(#clip0_971_976)">
<path fill-rule="evenodd" clip-rule="evenodd" d="M9.76841 20.1352C10.2461 19.858 10.8581 20.0207 11.1352 20.4984C11.2231 20.6499 11.3493 20.7757 11.5011 20.8632C11.6529 20.9506 11.825 20.9966 12.0002 20.9966C12.1754 20.9966 12.3475 20.9506 12.4993 20.8632C12.6511 20.7757 12.7773 20.6499 12.8652 20.4984C13.1423 20.0207 13.7542 19.858 14.232 20.1352C14.7097 20.4123 14.8723 21.0242 14.5952 21.5019C14.3315 21.9566 13.9529 22.3339 13.4975 22.5962C13.0421 22.8586 12.5258 22.9966 12.0002 22.9966C11.4746 22.9966 10.9583 22.8586 10.5028 22.5962C10.0474 22.3339 9.6689 21.9566 9.40518 21.5019C9.12806 21.0242 9.29069 20.4123 9.76841 20.1352Z" fill="black"/>
<path fill-rule="evenodd" clip-rule="evenodd" d="M18.0158 7.00013C18.568 7.00895 19.0085 7.46377 18.9997 8.01598C18.9742 9.60967 19.1745 11.1989 19.5945 12.7365C19.74 13.2693 19.4261 13.8191 18.8933 13.9647C18.3606 14.1102 17.8107 13.7963 17.6652 13.2635C17.1954 11.5439 16.9715 9.76643 17 7.98403C17.0088 7.43181 17.4636 6.99131 18.0158 7.00013Z" fill="black"/>
<path fill-rule="evenodd" clip-rule="evenodd" d="M6.55465 5.3042C7.08243 5.46689 7.3784 6.02662 7.21571 6.5544C7.07162 7.02183 6.99892 7.50834 7.00007 7.99747L7.00008 7.99983C7.00008 11.6472 6.21715 14.0652 5.37797 15.6037C5.30188 15.7432 5.22549 15.8751 5.1494 15.9998H17.0001C17.5524 15.9998 18.0001 16.4475 18.0001 16.9998C18.0001 17.5521 17.5524 17.9998 17.0001 17.9998H3.00008C2.55941 17.9998 2.17068 17.7114 2.04299 17.2896C1.91664 16.8723 2.07528 16.4219 2.43377 16.1756C2.43447 16.1751 2.43542 16.1744 2.43663 16.1735C2.44432 16.1678 2.46218 16.1542 2.4888 16.132C2.54202 16.0877 2.6304 16.0089 2.74288 15.8902C2.9673 15.6533 3.29039 15.2543 3.62218 14.646C4.28294 13.4346 4.99992 11.3529 5.00008 8.00091M2.44388 16.1688C2.44395 16.1687 2.44403 16.1687 2.44411 16.1686C2.44411 16.1686 2.4441 16.1686 2.4441 16.1686L2.44388 16.1688Z" fill="black"/>
<path fill-rule="evenodd" clip-rule="evenodd" d="M11.6627 0.999343C12.9294 0.938241 14.1888 1.22236 15.3065 1.82134C16.4242 2.42033 17.3582 3.31169 18.0087 4.4002C18.6593 5.48872 19.0019 6.73351 19 8.0016C18.9992 8.55388 18.5508 9.00093 17.9985 9.00011C17.4463 8.99929 16.9992 8.55091 17 7.99863C17.0014 7.09285 16.7566 6.20372 16.292 5.42621C15.8273 4.64869 15.1602 4.01201 14.3618 3.58416C13.5634 3.15632 12.6638 2.95338 11.7591 2.99702C10.8544 3.04066 9.9785 3.32925 9.22503 3.83196C8.76561 4.13848 8.1447 4.01453 7.83818 3.55512C7.53166 3.0957 7.65561 2.47478 8.11503 2.16827C9.16989 1.46447 10.3961 1.06045 11.6627 0.999343Z" fill="black"/>
<path fill-rule="evenodd" clip-rule="evenodd" d="M0.292893 0.292893C0.683417 -0.0976311 1.31658 -0.0976311 1.70711 0.292893L23.7071 22.2929C24.0976 22.6834 24.0976 23.3166 23.7071 23.7071C23.3166 24.0976 22.6834 24.0976 22.2929 23.7071L0.292893 1.70711C-0.0976311 1.31658 -0.0976311 0.683417 0.292893 0.292893Z" fill="black"/>
</g>
<defs>
<clipPath id="clip0_971_976">
<rect width="24" height="24" fill="white"/>
</clipPath>
</defs>
</svg>
