<svg width="24" height="24" viewBox="0 0 24 24" fill="none" xmlns="http://www.w3.org/2000/svg">
<g clip-path="url(#clip0_971_767)">
<path fill-rule="evenodd" clip-rule="evenodd" d="M5.86959 3.55979C7.44846 2.9753 9.15962 2.84538 10.8086 3.18481C12.4577 3.52424 13.9784 4.3194 15.1981 5.47994C16.2278 6.45975 17.0081 7.66682 17.4794 9H18.0001C19.5914 9 21.1175 9.63214 22.2428 10.7574C23.368 11.8826 24.0001 13.4087 24.0001 15C24.0001 16.5913 23.368 18.1174 22.2428 19.2426C21.1175 20.3679 19.5914 21 18.0001 21H9.00086M10.4054 5.14374C9.12285 4.87974 7.79195 4.98079 6.56394 5.43539C5.33593 5.89 4.26005 6.67994 3.45856 7.71546C2.65707 8.75098 2.16211 9.99054 2.02991 11.2933C1.89771 12.5961 2.13358 13.9098 2.71072 15.0852C3.28786 16.2606 4.18312 17.2506 5.29477 17.9426C6.40643 18.6346 7.68991 19.001 8.99936 19H18.0001C19.061 19 20.0784 18.5786 20.8285 17.8284C21.5787 17.0783 22.0001 16.0609 22.0001 15C22.0001 13.9391 21.5787 12.9217 20.8285 12.1716C20.0784 11.4214 19.061 11 18.0001 11H16.7401C16.2841 11 15.8859 10.6915 15.7719 10.25C15.4445 8.98212 14.7681 7.83149 13.8194 6.92885C12.8708 6.0262 11.688 5.40774 10.4054 5.14374Z" fill="black"/>
</g>
<defs>
<clipPath id="clip0_971_767">
<rect width="24" height="24" fill="white"/>
</clipPath>
</defs>
</svg>
