<svg width="24" height="24" viewBox="0 0 24 24" fill="none" xmlns="http://www.w3.org/2000/svg">
<g clip-path="url(#clip0_971_641)">
<path fill-rule="evenodd" clip-rule="evenodd" d="M9.17894 1.40286C11.3627 0.884451 13.6377 0.884452 15.8215 1.40287C17.0784 0.607491 18.0476 0.236117 18.7623 0.0774558C19.1555 -0.00985307 19.4704 -0.0323913 19.7107 -0.0257773C19.8306 -0.0224777 19.9308 -0.0119509 20.0117 0.000952538C20.0521 0.00739604 20.0875 0.0144054 20.118 0.0213438C20.1333 0.0248116 20.1473 0.0282571 20.1601 0.0315989L20.1783 0.0365214L20.1867 0.0389034L20.1907 0.0400711L20.1927 0.0406486C20.1936 0.0409354 20.1946 0.0412218 19.9102 0.999938L20.1946 0.0412219C20.4796 0.125762 20.7122 0.332736 20.8294 0.605989C21.3639 1.85304 21.4629 3.23739 21.1213 4.53856C22.0107 5.66882 22.5 7.0699 22.5002 8.51975V8.51994C22.5002 11.4662 21.599 13.4423 20.1013 14.7016C19.095 15.5477 17.8928 16.0052 16.7075 16.2665C16.7229 16.3057 16.7378 16.3452 16.7521 16.3849C16.9575 16.9553 17.042 17.5621 17.0002 18.1667V21.9999C17.0002 22.5522 16.5525 22.9999 16.0002 22.9999C15.448 22.9999 15.0002 22.5522 15.0002 21.9999V18.1299C15.0002 18.1038 15.0013 18.0776 15.0033 18.0515C15.0297 17.7162 14.9844 17.3791 14.8704 17.0626C14.7564 16.7461 14.5764 16.4575 14.3422 16.216C14.0767 15.942 13.9901 15.5409 14.1191 15.1818C14.2482 14.8227 14.5703 14.5684 14.9495 14.5261C16.4633 14.3574 17.8282 13.9999 18.8142 13.1708C19.7515 12.3826 20.5002 11.0337 20.5002 8.52012M19.2032 2.02826C19.2007 2.02881 19.1982 2.02936 19.1957 2.02992C18.708 2.1382 17.8446 2.4475 16.557 3.31058C16.3166 3.47177 16.0181 3.52084 15.7387 3.44512C13.618 2.87037 11.3825 2.87037 9.26182 3.44512C8.98241 3.52084 8.68389 3.47177 8.44343 3.31058C7.15589 2.4475 6.2925 2.1382 5.80476 2.02992C5.80225 2.02936 5.79975 2.02881 5.79726 2.02826C5.60401 2.81662 5.64976 3.6503 5.93712 4.4203C6.07093 4.77884 5.98837 5.18231 5.72449 5.45948C4.9329 6.29091 4.49412 7.39664 4.50022 8.54462L4.50025 8.54994C4.50024 11.0405 5.24697 12.381 6.18632 13.1708C7.17581 14.0028 8.54469 14.3689 10.0635 14.5576C10.4397 14.6043 10.7572 14.8598 10.8833 15.2173C11.0094 15.5748 10.9225 15.9729 10.6588 16.2454C10.4275 16.4844 10.249 16.7696 10.1351 17.0822C10.0212 17.3948 9.97443 17.7279 9.99777 18.0598C9.99941 18.0831 10.0002 18.1065 10.0002 18.1299V18.9775C10.0006 18.9928 10.0006 19.008 10.0002 19.0232V21.9999C10.0002 22.5522 9.55252 22.9999 9.00024 22.9999C8.44795 22.9999 8.00024 22.5522 8.00024 21.9999V20.2542C7.19406 20.3776 6.48463 20.3564 5.85048 20.208C4.8857 19.9822 4.19666 19.4856 3.66813 18.957C3.40949 18.6984 3.18666 18.4295 2.99412 18.1883C2.9287 18.1063 2.86891 18.0304 2.81242 17.9587C2.69199 17.8058 2.58653 17.6719 2.47337 17.539C2.14532 17.1539 1.94183 17.0161 1.7577 16.9701C1.22191 16.8361 0.896145 16.2932 1.03009 15.7574C1.16404 15.2216 1.70698 14.8958 2.24277 15.0298C3.05864 15.2338 3.60515 15.7834 3.99585 16.2421C4.13499 16.4054 4.27869 16.5878 4.41031 16.7549C4.46139 16.8197 4.51066 16.8823 4.55714 16.9405C4.73568 17.1642 4.90348 17.364 5.08234 17.5428C5.42881 17.8893 5.80227 18.1427 6.30625 18.2606C6.70643 18.3543 7.24848 18.3763 8.00024 18.2232V18.1628C7.96322 17.5632 8.05022 16.9622 8.25596 16.3975C8.27001 16.359 8.28458 16.3207 8.29968 16.2826C7.11261 16.0119 5.90724 15.5492 4.89916 14.7016C3.40394 13.4443 2.50077 11.4806 2.50024 8.55253M5.09024 0.999938C4.80587 0.0412218 4.80684 0.0409354 4.80781 0.0406486L4.80978 0.0400711L4.81381 0.0389034L4.82221 0.0365214L4.84042 0.0315989C4.85318 0.0282571 4.86718 0.0248116 4.88243 0.0213438C4.91295 0.0144054 4.94838 0.00739604 4.98878 0.000952538C5.06969 -0.0119509 5.16987 -0.0224777 5.28976 -0.0257773C5.53006 -0.0323913 5.84494 -0.00985307 6.23821 0.0774558C6.95289 0.236117 7.92206 0.607491 9.17894 1.40286M5.09024 0.999938L4.80587 0.0412219C4.52085 0.125762 4.28822 0.332736 4.1711 0.605989C3.63661 1.85303 3.53754 3.23738 3.87916 4.53854M19.2032 2.02826C19.3965 2.81662 19.3507 3.6503 19.0634 4.4203C18.9295 4.77883 19.0121 5.18229 19.276 5.45946C20.0617 6.28473 20.5 7.38048 20.5002 8.51994" fill="black"/>
</g>
<defs>
<clipPath id="clip0_971_641">
<rect width="24" height="24" fill="white"/>
</clipPath>
</defs>
</svg>
