<svg width="24" height="24" viewBox="0 0 24 24" fill="none" xmlns="http://www.w3.org/2000/svg">
<path fill-rule="evenodd" clip-rule="evenodd" d="M12 3C7.02944 3 3 7.02944 3 12C3 16.9706 7.02944 21 12 21C16.9706 21 21 16.9706 21 12C21 7.02944 16.9706 3 12 3ZM1 12C1 5.92487 5.92487 1 12 1C18.0751 1 23 5.92487 23 12C23 18.0751 18.0751 23 12 23C5.92487 23 1 18.0751 1 12Z" fill="black"/>
<path fill-rule="evenodd" clip-rule="evenodd" d="M12 9C10.3431 9 9 10.3431 9 12C9 13.6569 10.3431 15 12 15C13.6569 15 15 13.6569 15 12C15 10.3431 13.6569 9 12 9ZM7 12C7 9.23858 9.23858 7 12 7C14.7614 7 17 9.23858 17 12C17 14.7614 14.7614 17 12 17C9.23858 17 7 14.7614 7 12Z" fill="black"/>
<path fill-rule="evenodd" clip-rule="evenodd" d="M4.22307 4.22307C4.61359 3.83254 5.24676 3.83254 5.63728 4.22307L9.87728 8.46307C10.2678 8.85359 10.2678 9.48676 9.87728 9.87728C9.48676 10.2678 8.85359 10.2678 8.46307 9.87728L4.22307 5.63728C3.83254 5.24676 3.83254 4.61359 4.22307 4.22307Z" fill="black"/>
<path fill-rule="evenodd" clip-rule="evenodd" d="M14.123 14.123C14.5135 13.7324 15.1467 13.7324 15.5372 14.123L19.7772 18.363C20.1677 18.7535 20.1677 19.3867 19.7772 19.7772C19.3867 20.1677 18.7535 20.1677 18.363 19.7772L14.123 15.5372C13.7324 15.1467 13.7324 14.5135 14.123 14.123Z" fill="black"/>
<path fill-rule="evenodd" clip-rule="evenodd" d="M19.7772 4.22307C20.1677 4.61359 20.1677 5.24676 19.7772 5.63728L15.5372 9.87728C15.1467 10.2678 14.5135 10.2678 14.123 9.87728C13.7324 9.48676 13.7324 8.85359 14.123 8.46307L18.363 4.22307C18.7535 3.83254 19.3867 3.83254 19.7772 4.22307Z" fill="black"/>
<path fill-rule="evenodd" clip-rule="evenodd" d="M19.0672 4.93303C19.4577 5.32355 19.4577 5.95672 19.0672 6.34724L15.5372 9.87724C15.1467 10.2678 14.5135 10.2678 14.123 9.87724C13.7324 9.48672 13.7324 8.85355 14.123 8.46303L17.653 4.93303C18.0435 4.54251 18.6767 4.54251 19.0672 4.93303Z" fill="black"/>
<path fill-rule="evenodd" clip-rule="evenodd" d="M9.87728 14.123C10.2678 14.5135 10.2678 15.1467 9.87728 15.5372L5.63728 19.7772C5.24676 20.1677 4.61359 20.1677 4.22307 19.7772C3.83254 19.3867 3.83254 18.7535 4.22307 18.363L8.46307 14.123C8.85359 13.7324 9.48676 13.7324 9.87728 14.123Z" fill="black"/>
</svg>
