<svg width="24" height="24" viewBox="0 0 24 24" fill="none" xmlns="http://www.w3.org/2000/svg">
<path fill-rule="evenodd" clip-rule="evenodd" d="M12 1C12.5523 1 13 1.44772 13 2V6C13 6.55228 12.5523 7 12 7C11.4477 7 11 6.55228 11 6V2C11 1.44772 11.4477 1 12 1Z" fill="black"/>
<path fill-rule="evenodd" clip-rule="evenodd" d="M12 17C12.5523 17 13 17.4477 13 18V22C13 22.5523 12.5523 23 12 23C11.4477 23 11 22.5523 11 22V18C11 17.4477 11.4477 17 12 17Z" fill="black"/>
<path fill-rule="evenodd" clip-rule="evenodd" d="M4.22307 4.22307C4.61359 3.83254 5.24676 3.83254 5.63728 4.22307L8.46728 7.05307C8.85781 7.44359 8.85781 8.07676 8.46728 8.46728C8.07676 8.85781 7.44359 8.85781 7.05307 8.46728L4.22307 5.63728C3.83254 5.24676 3.83254 4.61359 4.22307 4.22307Z" fill="black"/>
<path fill-rule="evenodd" clip-rule="evenodd" d="M15.5331 15.5331C15.9237 15.1426 16.5568 15.1426 16.9473 15.5331L19.7773 18.3631C20.1679 18.7537 20.1679 19.3868 19.7773 19.7773C19.3868 20.1679 18.7537 20.1679 18.3631 19.7773L15.5331 16.9473C15.1426 16.5568 15.1426 15.9237 15.5331 15.5331Z" fill="black"/>
<path fill-rule="evenodd" clip-rule="evenodd" d="M1 12C1 11.4477 1.44772 11 2 11H6C6.55228 11 7 11.4477 7 12C7 12.5523 6.55228 13 6 13H2C1.44772 13 1 12.5523 1 12Z" fill="black"/>
<path fill-rule="evenodd" clip-rule="evenodd" d="M17 12C17 11.4477 17.4477 11 18 11H22C22.5523 11 23 11.4477 23 12C23 12.5523 22.5523 13 22 13H18C17.4477 13 17 12.5523 17 12Z" fill="black"/>
<path fill-rule="evenodd" clip-rule="evenodd" d="M8.46728 15.5331C8.85781 15.9237 8.85781 16.5568 8.46728 16.9473L5.63728 19.7773C5.24676 20.1679 4.61359 20.1679 4.22307 19.7773C3.83254 19.3868 3.83254 18.7537 4.22307 18.3631L7.05307 15.5331C7.44359 15.1426 8.07676 15.1426 8.46728 15.5331Z" fill="black"/>
<path fill-rule="evenodd" clip-rule="evenodd" d="M19.7773 4.22307C20.1679 4.61359 20.1679 5.24676 19.7773 5.63728L16.9473 8.46728C16.5568 8.85781 15.9237 8.85781 15.5331 8.46728C15.1426 8.07676 15.1426 7.44359 15.5331 7.05307L18.3631 4.22307C18.7537 3.83254 19.3868 3.83254 19.7773 4.22307Z" fill="black"/>
</svg>
