<svg width="24" height="24" viewBox="0 0 24 24" fill="none" xmlns="http://www.w3.org/2000/svg">
<g clip-path="url(#clip0_971_454)">
<path fill-rule="evenodd" clip-rule="evenodd" d="M0.292893 0.292893C0.683417 -0.0976311 1.31658 -0.0976311 1.70711 0.292893L23.7071 22.2929C24.0976 22.6834 24.0976 23.3166 23.7071 23.7071C23.3166 24.0976 22.6834 24.0976 22.2929 23.7071L0.292893 1.70711C-0.0976311 1.31658 -0.0976311 0.683417 0.292893 0.292893Z" fill="black"/>
<path fill-rule="evenodd" clip-rule="evenodd" d="M9.62762 0.77655C10.4263 0.188222 11.4151 -0.0823603 12.402 0.0173306C13.3889 0.117022 14.3036 0.579873 14.9685 1.31603C15.6333 2.05207 16.0009 3.00881 16 4.00059M9 8.00009C9.55228 8.00009 10 8.44781 10 9.00009V11.9996C10.0004 12.3948 10.1179 12.781 10.3376 13.1094C10.5574 13.438 10.8696 13.6941 11.2349 13.8453C11.6001 13.9965 12.002 14.0361 12.3897 13.9591C12.7774 13.8821 13.1336 13.6919 13.4133 13.4125C13.8041 13.0223 14.4373 13.0227 14.8275 13.4134C15.2178 13.8042 15.2174 14.4374 14.8267 14.8276C14.2673 15.3863 13.5549 15.7667 12.7794 15.9208C12.0039 16.0748 11.2002 15.9956 10.4697 15.6932C9.73927 15.3907 9.11481 14.8786 8.67524 14.2214C8.23567 13.5643 8.0007 12.7916 8 12.001L8 9.00009C8 8.44781 8.44772 8.00009 9 8.00009Z" fill="black"/>
<path fill-rule="evenodd" clip-rule="evenodd" d="M5.00019 9C5.55247 9 6.00019 9.44772 6.00019 10V12.0073C5.99144 13.2029 6.34009 14.3739 7.00145 15.37C7.66281 16.3661 8.6067 17.1419 9.71201 17.5978C10.8173 18.0538 12.0337 18.1691 13.205 17.929C14.3763 17.6888 15.4491 17.1042 16.2859 16.2502C16.6724 15.8557 17.3055 15.8492 17.7 16.2357C18.0945 16.6222 18.101 17.2553 17.7145 17.6498C16.5988 18.7886 15.1684 19.5681 13.6066 19.8882C12.0449 20.2084 10.4231 20.0546 8.94935 19.4467C7.4756 18.8388 6.21708 17.8044 5.33527 16.4763C4.45415 15.1492 3.98929 13.5893 4.00019 11.9965V10C4.00019 9.44772 4.4479 9 5.00019 9ZM19.0002 9C19.5525 9 20.0002 9.44772 20.0002 10V12C19.9998 12.4714 19.9577 12.9426 19.8745 13.4066C19.7769 13.9502 19.2572 14.3118 18.7136 14.2143C18.17 14.1168 17.8084 13.597 17.9059 13.0534C17.9683 12.7054 17.9999 12.3526 18.0002 11.9991V10C18.0002 9.44772 18.4479 9 19.0002 9Z" fill="black"/>
<path fill-rule="evenodd" clip-rule="evenodd" d="M12 18C12.5523 18 13 18.4477 13 19V23C13 23.5523 12.5523 24 12 24C11.4477 24 11 23.5523 11 23V19C11 18.4477 11.4477 18 12 18Z" fill="black"/>
<path fill-rule="evenodd" clip-rule="evenodd" d="M7 23C7 22.4477 7.44772 22 8 22H16C16.5523 22 17 22.4477 17 23C17 23.5523 16.5523 24 16 24H8C7.44772 24 7 23.5523 7 23Z" fill="black"/>
</g>
<defs>
<clipPath id="clip0_971_454">
<rect width="24" height="24" fill="white"/>
</clipPath>
</defs>
</svg>
