<svg width="24" height="24" viewBox="0 0 24 24" fill="none" xmlns="http://www.w3.org/2000/svg">
<g clip-path="url(#clip0_971_534)">
<path fill-rule="evenodd" clip-rule="evenodd" d="M14.056 0.889672C14.117 0.340766 14.6114 -0.0547767 15.1603 0.00620233C17.415 0.256686 19.5176 1.26639 21.1228 2.86953C22.7279 4.47267 23.7403 6.57396 23.9936 8.82839C24.0553 9.37722 23.6603 9.87212 23.1115 9.93379C22.5627 9.99546 22.0678 9.60054 22.0061 9.05171C21.8034 7.24817 20.9936 5.56714 19.7094 4.28463C18.4253 3.00212 16.7433 2.19435 14.9395 1.99397C14.3906 1.93299 13.995 1.43858 14.056 0.889672ZM7.78164 3.24179C7.59765 3.08357 7.36241 2.99764 7.11976 3.00003L7.10992 3.00012V3.00008H4.11046C3.97177 3.00026 3.83463 3.0293 3.70777 3.08534C3.58078 3.14143 3.46685 3.22335 3.37326 3.32588C3.27966 3.42842 3.20844 3.54932 3.16412 3.68088C3.12051 3.81037 3.10391 3.9474 3.1153 4.0835C3.42805 7.01505 4.42623 9.83192 6.0292 12.3063L6.03397 12.3137L6.03393 12.3137C7.49053 14.606 9.43396 16.5494 11.7262 18.006L11.734 18.011L11.734 18.011C14.1968 19.6081 16.9995 20.606 19.9174 20.9247C20.0536 20.936 20.1907 20.9192 20.3202 20.8754C20.4522 20.8308 20.5733 20.7591 20.6759 20.665C20.7785 20.5709 20.8603 20.4563 20.9161 20.3287C20.9719 20.2011 21.0004 20.0633 20.9999 19.9241L20.9999 19.92V16.92C20.9999 16.9152 20.9999 16.9105 21 16.9057C21 16.9022 21.0001 16.8987 21.0002 16.8952C21.0062 16.65 20.922 16.4111 20.7634 16.224C20.6056 16.0377 20.3852 15.9157 20.1437 15.8807C19.1108 15.7441 18.0965 15.4912 17.1203 15.1269L17.118 15.1261C16.9391 15.0588 16.7446 15.0442 16.5576 15.0841C16.3713 15.1238 16.2003 15.2159 16.0647 15.3495L14.797 16.6171C14.4787 16.9354 13.9869 17.0018 13.5956 16.7793C10.9356 15.2668 8.73314 13.0643 7.22062 10.4043C6.99811 10.013 7.0645 9.52125 7.38281 9.20294L8.65044 7.93531C8.78402 7.79962 8.87609 7.6286 8.91581 7.44236C8.95569 7.25538 8.94113 7.06088 8.87386 6.88192L8.87301 6.87966C8.50874 5.90346 8.25587 4.88925 8.11922 3.8563C8.08455 3.61748 7.96467 3.3992 7.78164 3.24179ZM7.10549 1.00008C7.83153 0.994248 8.53513 1.25193 9.08571 1.72543C9.63766 2.20011 9.99818 2.85929 10.1001 3.58012L10.1014 3.58931L10.1013 3.58932C10.218 4.47424 10.4344 5.34312 10.7464 6.17941C10.9478 6.71596 10.9914 7.29899 10.8718 7.85952C10.7522 8.42046 10.4742 8.93536 10.071 9.34319L10.067 9.34717L10.067 9.34716L9.34992 10.0642C10.5258 11.9089 12.091 13.4742 13.9357 14.65L14.6528 13.9329L14.6567 13.929C15.0646 13.5257 15.5795 13.2478 16.1404 13.1281C16.7009 13.0086 17.284 13.0521 17.8205 13.2535C18.6568 13.5655 19.5257 13.7819 20.4106 13.8986L20.4196 13.8998L20.4196 13.8998C21.1482 14.0026 21.8136 14.3696 22.2893 14.9311C22.7621 15.489 23.0147 16.2003 22.9998 16.9312V19.918M14.0684 4.80857C14.1742 4.26651 14.6993 3.91282 15.2414 4.01858C16.4135 4.24725 17.4906 4.82048 18.335 5.66489C19.1795 6.5093 19.7527 7.58648 19.9814 8.75856C20.0871 9.30062 19.7334 9.82578 19.1914 9.93154C18.6493 10.0373 18.1241 9.6836 18.0184 9.14154C17.8659 8.36016 17.4838 7.64204 16.9208 7.0791C16.3579 6.51616 15.6398 6.13401 14.8584 5.98156C14.3163 5.8758 13.9626 5.35064 14.0684 4.80857Z" fill="black"/>
</g>
<defs>
<clipPath id="clip0_971_534">
<rect width="24" height="24" fill="white"/>
</clipPath>
</defs>
</svg>
