<svg width="24" height="24" viewBox="0 0 24 24" fill="none" xmlns="http://www.w3.org/2000/svg">
<g clip-path="url(#clip0_971_540)">
<path fill-rule="evenodd" clip-rule="evenodd" d="M16 1C16.5523 1 17 1.44772 17 2V7H22C22.5523 7 23 7.44772 23 8C23 8.55228 22.5523 9 22 9H16C15.4477 9 15 8.55228 15 8V2C15 1.44772 15.4477 1 16 1Z" fill="black"/>
<path fill-rule="evenodd" clip-rule="evenodd" d="M23.7071 0.292893C24.0976 0.683417 24.0976 1.31658 23.7071 1.70711L16.7071 8.70711C16.3166 9.09763 15.6834 9.09763 15.2929 8.70711C14.9024 8.31658 14.9024 7.68342 15.2929 7.29289L22.2929 0.292893C22.6834 -0.0976311 23.3166 -0.0976311 23.7071 0.292893Z" fill="black"/>
<path fill-rule="evenodd" clip-rule="evenodd" d="M7.78166 3.24181C7.59767 3.08359 7.36243 2.99766 7.11977 3.00005L7.10993 3.00015V3.0001H4.11055C3.97183 3.00027 3.83466 3.02931 3.70777 3.08536C3.58078 3.14145 3.46686 3.22337 3.37326 3.32591C3.27966 3.42844 3.20844 3.54934 3.16413 3.68091C3.12051 3.81039 3.10391 3.94742 3.1153 4.08353C3.42805 7.01509 4.42624 9.83197 6.02921 12.3064L6.03398 12.3138L6.03395 12.3138C7.49055 14.606 9.43399 16.5495 11.7263 18.0061L11.7341 18.011L11.734 18.0111C14.1969 19.6082 16.9996 20.6061 19.9175 20.9248C20.0537 20.9361 20.1908 20.9193 20.3203 20.8755C20.4522 20.8309 20.5734 20.7592 20.676 20.6651C20.7786 20.5709 20.8604 20.4564 20.9162 20.3288C20.972 20.2012 21.0005 20.0634 20.9999 19.9242L20.9999 19.9201V16.9201C20.9999 16.9118 21 16.9036 21.0002 16.8953C21.0063 16.6501 20.9221 16.4112 20.7635 16.224C20.6057 16.0378 20.3853 15.9158 20.1438 15.8808C19.1108 15.7442 18.0966 15.4913 17.1203 15.127L17.1181 15.1261C16.9391 15.0589 16.7446 15.0443 16.5576 15.0842C16.3714 15.1239 16.2004 15.216 16.0647 15.3495L14.797 16.6172C14.4787 16.9355 13.987 17.0019 13.5956 16.7794C10.9356 15.2669 8.73317 13.0644 7.22064 10.4044C6.99813 10.0131 7.06451 9.5213 7.38283 9.20299L8.65047 7.93535C8.78404 7.79966 8.87611 7.62864 8.91583 7.4424C8.95571 7.25541 8.94115 7.06092 8.87388 6.88196L8.87304 6.8797C8.50876 5.90349 8.2559 4.88928 8.11924 3.85633C8.08457 3.61751 7.96469 3.39923 7.78166 3.24181ZM7.10551 1.0001C7.83155 0.99426 8.53515 1.25194 9.08573 1.72544C9.63769 2.20013 9.99821 2.85932 10.1001 3.58015L10.1014 3.58933L10.1013 3.58934C10.2181 4.47427 10.4345 5.34316 10.7464 6.17945C10.9479 6.716 10.9914 7.29903 10.8718 7.85956C10.7522 8.42051 10.4743 8.9354 10.071 9.34324L10.0671 9.34722L10.067 9.3472L9.34995 10.0643C10.5258 11.9089 12.0911 13.4742 13.9357 14.6501L14.6528 13.933L14.6568 13.929C15.0646 13.5258 15.5795 13.2478 16.1405 13.1282C16.701 13.0086 17.284 13.0522 17.8206 13.2536C18.6569 13.5656 19.5258 13.782 20.4107 13.8987L20.4196 13.8999L20.4196 13.8999C21.1483 14.0027 21.8137 14.3697 22.2894 14.9311C22.7622 15.4891 23.0147 16.2004 22.9999 16.9313V19.9181" fill="black"/>
</g>
<defs>
<clipPath id="clip0_971_540">
<rect width="24" height="24" fill="white"/>
</clipPath>
</defs>
</svg>
