<svg width="24" height="24" viewBox="0 0 24 24" fill="none" xmlns="http://www.w3.org/2000/svg">
<g clip-path="url(#clip0_971_548)">
<path fill-rule="evenodd" clip-rule="evenodd" d="M7.78166 3.24181C7.59767 3.08359 7.36243 2.99766 7.11977 3.00005L7.10993 3.00015L4.11055 3.0001C3.97183 3.00027 3.83466 3.02931 3.70777 3.08536C3.58078 3.14145 3.46686 3.22337 3.37326 3.32591C3.27966 3.42844 3.20844 3.54934 3.16413 3.68091C3.12062 3.81007 3.10399 3.94673 3.11522 4.08251C3.43392 7.00043 4.43181 9.80316 6.02895 12.266C6.32945 12.7294 6.19741 13.3486 5.73403 13.6491C5.27066 13.9496 4.65141 13.8176 4.35091 13.3542C2.58167 10.626 1.47704 7.52078 1.12578 4.28812L1.12399 4.2701C1.08651 3.8553 1.1358 3.43724 1.26874 3.04253C1.40168 2.64783 1.61535 2.28513 1.89614 1.97753C2.17693 1.66993 2.5187 1.42416 2.89968 1.25588C3.28066 1.0876 3.6925 1.00049 4.10899 1.0001L7.10551 1.0001C7.83155 0.99426 8.53515 1.25194 9.08573 1.72544C9.63769 2.20013 9.99821 2.85932 10.1001 3.58015L10.1014 3.58933C10.2181 4.47426 10.4345 5.34316 10.7464 6.17945C10.9479 6.716 10.9914 7.29903 10.8718 7.85956C10.7522 8.42051 10.4743 8.9354 10.071 9.34324L10.0671 9.34722L8.79704 10.6172C8.40652 11.0077 7.77335 11.0077 7.38283 10.6172C6.9923 10.2267 6.9923 9.59351 7.38283 9.20299L8.65047 7.93535C8.78404 7.79966 8.87611 7.62864 8.91583 7.4424C8.95571 7.25541 8.94115 7.06092 8.87388 6.88196L8.87304 6.8797C8.50876 5.90349 8.2559 4.88928 8.11924 3.85633C8.08457 3.61751 7.96469 3.39923 7.78166 3.24181ZM9.97314 12.6027C10.3638 12.2123 10.997 12.2126 11.3874 12.6033C12.1603 13.3769 13.0149 14.0631 13.9357 14.6501L14.6528 13.933L14.6568 13.929C15.0646 13.5258 15.5795 13.2478 16.1405 13.1282C16.701 13.0086 17.284 13.0522 17.8206 13.2536C18.6569 13.5656 19.5258 13.782 20.4107 13.8987L20.4199 13.8999C21.1407 14.0018 21.7999 14.3623 22.2746 14.9143C22.7481 15.4649 23.0058 16.1685 22.9999 16.8946V19.8881M16.0647 15.3495L14.797 16.6172C14.4787 16.9355 13.987 17.0019 13.5956 16.7794C12.2694 16.0253 11.0508 15.0961 9.97252 14.0169C9.58216 13.6262 9.58244 12.993 9.97314 12.6027" fill="black"/>
<path fill-rule="evenodd" clip-rule="evenodd" d="M23.7071 0.292893C24.0976 0.683417 24.0976 1.31658 23.7071 1.70711L1.70711 23.7071C1.31658 24.0976 0.683417 24.0976 0.292893 23.7071C-0.0976311 23.3166 -0.0976311 22.6834 0.292893 22.2929L22.2929 0.292893C22.6834 -0.0976311 23.3166 -0.0976311 23.7071 0.292893Z" fill="black"/>
</g>
<defs>
<clipPath id="clip0_971_548">
<rect width="24" height="24" fill="white"/>
</clipPath>
</defs>
</svg>
