<svg width="24" height="24" viewBox="0 0 24 24" fill="none" xmlns="http://www.w3.org/2000/svg">
<path fill-rule="evenodd" clip-rule="evenodd" d="M12 3C7.02944 3 3 7.02944 3 12C3 16.9706 7.02944 21 12 21C16.9706 21 21 16.9706 21 12C21 7.02944 16.9706 3 12 3ZM1 12C1 5.92487 5.92487 1 12 1C18.0751 1 23 5.92487 23 12C23 18.0751 18.0751 23 12 23C5.92487 23 1 18.0751 1 12Z" fill="black"/>
<path fill-rule="evenodd" clip-rule="evenodd" d="M4.22307 4.22307C4.61359 3.83254 5.24676 3.83254 5.63728 4.22307L19.7773 18.3631C20.1678 18.7536 20.1678 19.3868 19.7773 19.7773C19.3868 20.1678 18.7536 20.1678 18.3631 19.7773L4.22307 5.63728C3.83254 5.24676 3.83254 4.61359 4.22307 4.22307Z" fill="black"/>
</svg>
