<svg width="24" height="24" viewBox="0 0 24 24" fill="none" xmlns="http://www.w3.org/2000/svg">
<path fill-rule="evenodd" clip-rule="evenodd" d="M16.5577 3.02821C16.0747 2.97363 15.5836 2.98945 15.1 3.07757C14.1 3.25976 13.1794 3.74236 12.4607 4.46105C11.742 5.17975 11.2594 6.1004 11.0772 7.10033C10.895 8.10026 11.0219 9.13196 11.4409 10.058C11.6125 10.4372 11.5313 10.883 11.237 11.1773L4.32696 18.0873C4.11667 18.2976 3.99854 18.5828 3.99854 18.8802C3.99854 19.1776 4.11667 19.4628 4.32696 19.6731C4.53725 19.8834 4.82246 20.0015 5.11986 20.0015C5.41725 20.0015 5.70246 19.8834 5.91275 19.6731L12.8227 12.7631C13.1171 12.4688 13.5629 12.3876 13.9421 12.5592C14.8681 12.9782 15.8998 13.1051 16.8997 12.9229C17.8997 12.7407 18.8203 12.2581 19.539 11.5394C20.2577 10.8207 20.7403 9.90004 20.9225 8.90012C21.0106 8.41647 21.0264 7.92538 20.9719 7.44242L18.3999 10.0144C18.026 10.3809 17.5234 10.5861 16.9999 10.5861C16.4763 10.5861 15.9737 10.3808 15.5999 10.0144L15.5927 10.0074L13.9857 8.40026C13.6192 8.0264 13.414 7.52373 13.414 7.00022C13.414 6.47672 13.6193 5.97408 13.9857 5.60022L13.9927 5.59308L16.5577 3.02821ZM14.7415 1.10996C16.1414 0.854899 17.5857 1.03252 18.8821 1.61916C19.1812 1.7545 19.3948 2.02801 19.4537 2.35097C19.5125 2.67393 19.4091 3.0052 19.177 3.23733L15.4141 7.00022L16.9999 8.58601L20.7627 4.82312C20.9949 4.59099 21.3261 4.48758 21.6491 4.54642C21.9721 4.60527 22.2456 4.81887 22.3809 5.11795C22.9676 6.41434 23.1452 7.85872 22.8901 9.25862C22.6351 10.6585 21.9594 11.9474 20.9532 12.9536C19.9471 13.9598 18.6581 14.6354 17.2583 14.8905C16.0908 15.1032 14.8924 15.015 13.7747 14.6396L7.32696 21.0873C6.7416 21.6727 5.94768 22.0015 5.11986 22.0015C4.29203 22.0015 3.49811 21.6727 2.91275 21.0873C2.32739 20.502 1.99854 19.708 1.99854 18.8802C1.99854 18.0524 2.32739 17.2585 2.91275 16.6731L9.36051 10.2254C8.9851 9.10767 8.89688 7.90928 9.10959 6.74183C9.36466 5.34193 10.0403 4.05301 11.0465 3.04684C12.0526 2.04067 13.3416 1.36503 14.7415 1.10996Z" fill="black"/>
</svg>
