<svg width="24" height="24" viewBox="0 0 24 24" fill="none" xmlns="http://www.w3.org/2000/svg">
<path fill-rule="evenodd" clip-rule="evenodd" d="M5 12C4.44772 12 4 12.4477 4 13V20C4 20.5523 4.44772 21 5 21H19C19.5523 21 20 20.5523 20 20V13C20 12.4477 19.5523 12 19 12H5ZM2 13C2 11.3431 3.34315 10 5 10H19C20.6569 10 22 11.3431 22 13V20C22 21.6569 20.6569 23 19 23H5C3.34315 23 2 21.6569 2 20V13Z" fill="black"/>
<path fill-rule="evenodd" clip-rule="evenodd" d="M14.3724 3.7746C13.5737 3.18627 12.5849 2.91569 11.598 3.01538C10.6111 3.11507 9.69637 3.57792 9.0315 4.31408C8.36662 5.05024 7.999 6.00718 8 6.99915L8 11.0002C8 11.5524 7.55228 12.0002 7 12.0002C6.44772 12.0002 6 11.5524 6 11.0002V7.0006" fill="black"/>
</svg>
