<svg width="24" height="24" viewBox="0 0 24 24" fill="none" xmlns="http://www.w3.org/2000/svg">
<path fill-rule="evenodd" clip-rule="evenodd" d="M12 6C8.68629 6 6 8.68629 6 12C6 15.3137 8.68629 18 12 18C15.3137 18 18 15.3137 18 12C18 8.68629 15.3137 6 12 6ZM4 12C4 7.58172 7.58172 4 12 4C16.4183 4 20 7.58172 20 12C20 16.4183 16.4183 20 12 20C7.58172 20 4 16.4183 4 12Z" fill="black"/>
<path fill-rule="evenodd" clip-rule="evenodd" d="M12 8C12.5523 8 13 8.44772 13 9V11.5858L14.2071 12.7929C14.5976 13.1834 14.5976 13.8166 14.2071 14.2071C13.8166 14.5976 13.1834 14.5976 12.7929 14.2071L11.2929 12.7071C11.1054 12.5196 11 12.2652 11 12V9C11 8.44772 11.4477 8 12 8Z" fill="black"/>
<path fill-rule="evenodd" clip-rule="evenodd" d="M14.8612 2.26038C14.6761 2.09189 14.4344 1.99898 14.1841 1.99999L14.18 2.00001L9.83066 2C9.58131 2.00032 9.34106 2.09378 9.15704 2.26208C8.97295 2.43044 8.85844 2.66154 8.83599 2.91L8.4859 6.741C8.43563 7.291 7.94903 7.69611 7.39904 7.64585C6.84905 7.59559 6.44393 7.10899 6.49419 6.559L6.8441 2.73C6.84412 2.72983 6.84409 2.73017 6.8441 2.73C6.91157 1.98481 7.25513 1.29121 7.80728 0.786229C8.35955 0.281131 9.08068 0.000705302 9.8291 4.17233e-07L14.1782 0M14.8612 2.26038C15.0464 2.42887 15.1616 2.66067 15.1841 2.90999ZM17.176 2.73001L17.1759 2.729ZM17.176 2.73001L17.5259 6.559C17.5762 7.10899 17.171 7.59559 16.6211 7.64585C16.0711 7.69611 15.5845 7.291 15.5342 6.741L15.1841 2.90999M7.38904 16.3542C7.93903 16.3039 8.42564 16.709 8.4759 17.259L8.82599 21.09C8.84852 21.3393 8.96374 21.5711 9.14889 21.7396C9.33404 21.9081 9.57565 22.001 9.82599 22L9.83004 22L14.16 22L14.1641 22C14.4144 22.001 14.6561 21.9081 14.8412 21.7396C15.0264 21.5711 15.1416 21.3393 15.1641 21.09L15.5142 17.259C15.5645 16.709 16.0511 16.3039 16.6011 16.3542C17.151 16.4044 17.5562 16.891 17.5059 17.441L17.156 21.27C17.156 21.2703 17.1559 21.2707 17.1559 21.271M7.38904 16.3542C6.83905 16.4044 6.43393 16.891 6.48419 17.441ZM6.48419 17.441L6.8341 21.27ZM6.8341 21.27C6.83409 21.2698 6.83412 21.2702 6.8341 21.27ZM9.83205 24H9.83004V23L9.8341 24C9.83342 24 9.83273 24 9.83205 24ZM9.83205 24H14.158Z" fill="black"/>
</svg>
