<svg width="24" height="24" viewBox="0 0 24 24" fill="none" xmlns="http://www.w3.org/2000/svg">
<path fill-rule="evenodd" clip-rule="evenodd" d="M12.04 11.002C9.70148 11.002 7.4369 11.8215 5.64003 13.3182C5.21566 13.6717 4.58511 13.6142 4.23165 13.1898C3.87819 12.7655 3.93566 12.1349 4.36003 11.7815C6.51628 9.98546 9.23378 9.00195 12.04 9.00195C14.8463 9.00195 17.5638 9.98546 19.72 11.7815C20.1444 12.1349 20.2019 12.7655 19.8484 13.1898C19.4949 13.6142 18.8644 13.6717 18.44 13.3182C16.6431 11.8215 14.3786 11.002 12.04 11.002Z" fill="black"/>
<path fill-rule="evenodd" clip-rule="evenodd" d="M11.9999 6.00244C8.34771 6.00244 4.82096 7.33493 2.08118 9.74996C1.66688 10.1152 1.03497 10.0753 0.669769 9.66104C0.30457 9.24674 0.344379 8.61482 0.758684 8.24963C3.86376 5.51259 7.86075 4.00244 11.9999 4.00244C16.1391 4.00244 20.1361 5.51259 23.2412 8.24963C23.6555 8.61482 23.6953 9.24674 23.3301 9.66104C22.9649 10.0753 22.333 10.1152 21.9187 9.74996C19.1789 7.33493 15.6522 6.00244 11.9999 6.00244Z" fill="black"/>
<path fill-rule="evenodd" clip-rule="evenodd" d="M12.0049 16.0015C10.9671 16.0015 9.95503 16.3244 9.10903 16.9254C8.6588 17.2453 8.03452 17.1396 7.71466 16.6894C7.39479 16.2391 7.50047 15.6149 7.9507 15.295C9.1351 14.4535 10.552 14.0015 12.0049 14.0015C13.4577 14.0015 14.8746 14.4535 16.059 15.295C16.5093 15.6149 16.6149 16.2391 16.2951 16.6894C15.9752 17.1396 15.3509 17.2453 14.9007 16.9254C14.0547 16.3244 13.0426 16.0015 12.0049 16.0015Z" fill="black"/>
<path fill-rule="evenodd" clip-rule="evenodd" d="M11 20C11 19.4477 11.4477 19 12 19H12.01C12.5623 19 13.01 19.4477 13.01 20C13.01 20.5523 12.5623 21 12.01 21H12C11.4477 21 11 20.5523 11 20Z" fill="black"/>
</svg>
