<svg width="24" height="24" viewBox="0 0 24 24" fill="none" xmlns="http://www.w3.org/2000/svg">
<g clip-path="url(#clip0_971_194)">
<path fill-rule="evenodd" clip-rule="evenodd" d="M0.292893 0.292893C0.683417 -0.0976311 1.31658 -0.0976311 1.70711 0.292893L23.7071 22.2929C24.0976 22.6834 24.0976 23.3166 23.7071 23.7071C23.3166 24.0976 22.6834 24.0976 22.2929 23.7071L0.292893 1.70711C-0.0976311 1.31658 -0.0976311 0.683417 0.292893 0.292893Z" fill="black"/>
<path fill-rule="evenodd" clip-rule="evenodd" d="M15.8213 10.6212C16.0635 10.1249 16.6622 9.91888 17.1585 10.1611C18.0525 10.5974 18.8885 11.1437 19.647 11.7873C20.0681 12.1446 20.1198 12.7757 19.7624 13.1968C19.4051 13.6179 18.7741 13.6696 18.353 13.3123C17.7215 12.7765 17.0256 12.3217 16.2814 11.9585C15.785 11.7163 15.579 11.1175 15.8213 10.6212Z" fill="black"/>
<path fill-rule="evenodd" clip-rule="evenodd" d="M11.1557 9.99097C11.2489 10.5353 10.8832 11.0522 10.3389 11.1455C8.60881 11.4419 6.98807 12.1911 5.64146 13.317C5.21776 13.6713 4.5871 13.615 4.23285 13.1913C3.87859 12.7676 3.93489 12.1369 4.35859 11.7827C5.97614 10.4302 7.92299 9.53022 10.0012 9.17419C10.5455 9.08093 11.0624 9.44662 11.1557 9.99097Z" fill="black"/>
<path fill-rule="evenodd" clip-rule="evenodd" d="M16.7313 6.76589C14.8194 6.12965 12.7988 5.88516 10.7903 6.047C10.2398 6.09135 9.7576 5.68104 9.71324 5.13054C9.66889 4.58004 10.0792 4.09782 10.6297 4.05346C12.906 3.87004 15.1959 4.14713 17.3628 4.8682C19.5297 5.58928 21.529 6.73954 23.2416 8.25033C23.6557 8.6157 23.6953 9.24763 23.3299 9.66178C22.9645 10.0759 22.3326 10.1155 21.9185 9.75012C20.4074 8.41707 18.6433 7.40213 16.7313 6.76589Z" fill="black"/>
<path fill-rule="evenodd" clip-rule="evenodd" d="M7.05021 5.75302C7.25282 6.2668 7.00058 6.84755 6.48681 7.05017C4.87276 7.6867 3.38219 8.60007 2.08222 9.74915C1.66842 10.1149 1.03645 10.076 0.67068 9.66218C0.304911 9.24838 0.343849 8.61641 0.75765 8.25064C2.232 6.94743 3.92251 5.91154 5.75306 5.18962C6.26684 4.98701 6.84759 5.23925 7.05021 5.75302Z" fill="black"/>
<path fill-rule="evenodd" clip-rule="evenodd" d="M12.0049 16.0015C10.9671 16.0015 9.95503 16.3244 9.10903 16.9254C8.6588 17.2453 8.03452 17.1396 7.71466 16.6894C7.39479 16.2391 7.50047 15.6149 7.9507 15.295C9.1351 14.4535 10.552 14.0015 12.0049 14.0015C13.4577 14.0015 14.8746 14.4535 16.059 15.295C16.5093 15.6149 16.6149 16.2391 16.2951 16.6894C15.9752 17.1396 15.3509 17.2453 14.9007 16.9254C14.0547 16.3244 13.0426 16.0015 12.0049 16.0015Z" fill="black"/>
<path fill-rule="evenodd" clip-rule="evenodd" d="M11 20C11 19.4477 11.4477 19 12 19H12.01C12.5623 19 13.01 19.4477 13.01 20C13.01 20.5523 12.5623 21 12.01 21H12C11.4477 21 11 20.5523 11 20Z" fill="black"/>
</g>
<defs>
<clipPath id="clip0_971_194">
<rect width="24" height="24" fill="white"/>
</clipPath>
</defs>
</svg>
